<svg xmlns="http://www.w3.org/2000/svg" viewBox="0 0 32 32" width="32" height="32">
  <defs>
    <linearGradient id="grad1" x1="0%" y1="0%" x2="100%" y2="100%">
      <stop offset="0%" style="stop-color:#6366f1;stop-opacity:1" />
      <stop offset="100%" style="stop-color:#8b5cf6;stop-opacity:1" />
    </linearGradient>
    <linearGradient id="grad2" x1="0%" y1="0%" x2="100%" y2="100%">
      <stop offset="0%" style="stop-color:#06b6d4;stop-opacity:1" />
      <stop offset="100%" style="stop-color:#3b82f6;stop-opacity:1" />
    </linearGradient>
  </defs>
  
  <!-- Background circle -->
  <circle cx="16" cy="16" r="15" fill="url(#grad1)" stroke="#ffffff" stroke-width="1"/>
  
  <!-- AI Brain/Neural network pattern -->
  <g fill="none" stroke="url(#grad2)" stroke-width="1.5" opacity="0.8">
    <!-- Neural connections -->
    <path d="M8 12 L16 8 L24 12"/>
    <path d="M8 20 L16 24 L24 20"/>
    <path d="M8 12 L8 20"/>
    <path d="M24 12 L24 20"/>
    <path d="M8 12 L16 16 L24 12"/>
    <path d="M8 20 L16 16 L24 20"/>
  </g>
  
  <!-- Neural nodes -->
  <g fill="#ffffff">
    <circle cx="8" cy="12" r="2"/>
    <circle cx="16" cy="8" r="2"/>
    <circle cx="24" cy="12" r="2"/>
    <circle cx="16" cy="16" r="2.5"/>
    <circle cx="8" cy="20" r="2"/>
    <circle cx="16" cy="24" r="2"/>
    <circle cx="24" cy="20" r="2"/>
  </g>
  
  <!-- Central AI core -->
  <circle cx="16" cy="16" r="1.5" fill="url(#grad2)"/>
  
  <!-- EON letters stylized -->
  <text x="16" y="18" font-family="Arial, sans-serif" font-size="6" font-weight="bold" text-anchor="middle" fill="#ffffff" opacity="0.9">AI</text>
</svg>
