<svg xmlns="http://www.w3.org/2000/svg" version="1.0" width="394.000000pt" height="355.000000pt" viewBox="0 0 394.000000 355.000000" preserveAspectRatio="xMidYMid meet">

<g transform="translate(0.000000,355.000000) scale(0.100000,-0.100000)" fill="#FFFFFF" stroke="none">
<path d="M1926 2990 c-111 -11 -217 -34 -326 -72 -306 -108 -576 -348 -724 -645 -98 -195 -139 -372 -138 -598 0 -293 68 -522 224 -757 75 -112 242 -282 351 -357 158 -108 344 -184 526 -215 106 -18 276 -21 316 -6 l26 10 -3 454 c-2 340 -6 458 -15 467 -7 7 -44 22 -83 35 -128 40 -218 116 -269 223 -20 45 -26 75 -29 148 -4 106 11 167 59 233 27 36 110 100 131 100 4 0 8 -84 8 -187 0 -105 5 -206 11 -228 9 -34 67 -96 357 -389 191 -191 373 -370 405 -397 l58 -49 255 0 c167 0 263 4 277 11 34 17 307 292 307 309 0 8 -161 176 -359 374 l-358 358 -13 92 c-16 117 -59 254 -107 335 -51 87 -153 189 -239 239 -71 41 -205 92 -242 92 -19 0 -20 11 -27 204 l-7 205 -62 5 c-133 12 -225 13 -310 6z m54 -529 l0 -119 -47 -11 c-102 -26 -193 -81 -283 -171 -133 -133 -190 -275 -190 -472 0 -284 135 -505 389 -637 l76 -39 -3 -131 -3 -131 -27 0 c-52 1 -178 39 -258 80 -257 130 -429 362 -490 660 -32 160 -8 388 56 540 119 278 378 485 670 535 122 21 110 32 110 -104z m388 -241 c60 -27 149 -115 182 -180 35 -70 50 -123 60 -222 l7 -78 161 -167 c88 -93 193 -199 232 -238 67 -65 180 -197 180 -209 0 -4 -65 -6 -145 -6 l-145 0 -253 244 c-138 135 -273 269 -299 299 l-47 55 -3 261 c-3 292 -8 276 70 241z"/>
</g>
</svg>
